<?xml version="1.0" encoding="utf-8"?>
<!-- Generator: Adobe Illustrator 21.1.0, SVG Export Plug-In . SVG Version: 6.00 Build 0)  -->
<svg version="1.1" id="Layer_1" xmlns="http://www.w3.org/2000/svg" xmlns:xlink="http://www.w3.org/1999/xlink" x="0px" y="0px"
	 viewBox="0 0 1280 1024" style="enable-background:new 0 0 1280 1024;" xml:space="preserve">
<style type="text/css">
	.st0{fill:#333333;}
	.st1{opacity:0.5;}
	.st2{fill:none;stroke:#000000;stroke-width:0.8375;stroke-miterlimit:10;}
	.st3{fill:#FFFFFF;}
	.st4{fill:none;stroke:#000000;stroke-width:0.8596;stroke-miterlimit:10;}
</style>
<g>
	<rect class="st0" width="1280" height="1024"/>
</g>
<g class="st1">
	
		<rect x="355.1" y="13.3" transform="matrix(0.7071 0.7071 -0.7071 0.7071 143.6254 -259.7423)" class="st2" width="60.4" height="60.4"/>
	
		<rect x="440.9" y="13.3" transform="matrix(0.7071 0.7071 -0.7071 0.7071 168.739 -320.3721)" class="st2" width="60.4" height="60.4"/>
	
		<rect x="526.6" y="13.3" transform="matrix(0.7071 0.7071 -0.7071 0.7071 193.8527 -381.0019)" class="st2" width="60.4" height="60.4"/>
	
		<rect x="612.4" y="13.3" transform="matrix(0.7071 0.7071 -0.7071 0.7071 218.9664 -441.6316)" class="st2" width="60.4" height="60.4"/>
	
		<rect x="698.1" y="13.3" transform="matrix(0.7071 0.7071 -0.7071 0.7071 244.08 -502.2614)" class="st2" width="60.4" height="60.4"/>
	
		<rect x="783.9" y="13.3" transform="matrix(0.7071 0.7071 -0.7071 0.7071 269.1937 -562.8911)" class="st2" width="60.4" height="60.4"/>
	
		<rect x="12.2" y="13.3" transform="matrix(0.7071 0.7071 -0.7071 0.7071 43.1707 -17.2234)" class="st2" width="60.4" height="60.4"/>
	
		<rect x="97.9" y="13.3" transform="matrix(0.7071 0.7071 -0.7071 0.7071 68.2844 -77.8531)" class="st2" width="60.4" height="60.4"/>
	
		<rect x="183.7" y="13.3" transform="matrix(0.7071 0.7071 -0.7071 0.7071 93.3981 -138.4828)" class="st2" width="60.4" height="60.4"/>
	
		<rect x="269.4" y="13.3" transform="matrix(0.7071 0.7071 -0.7071 0.7071 118.5117 -199.1126)" class="st2" width="60.4" height="60.4"/>
	
		<rect x="869.6" y="13.3" transform="matrix(0.7071 0.7071 -0.7071 0.7071 294.3074 -623.5208)" class="st2" width="60.4" height="60.4"/>
	
		<rect x="955.3" y="13.3" transform="matrix(0.7071 0.7071 -0.7071 0.7071 319.421 -684.1506)" class="st2" width="60.4" height="60.4"/>
	
		<rect x="1041.1" y="13.3" transform="matrix(0.7071 0.7071 -0.7071 0.7071 344.5347 -744.7803)" class="st2" width="60.4" height="60.4"/>
	
		<rect x="1126.8" y="13.3" transform="matrix(0.7071 0.7071 -0.7071 0.7071 369.6484 -805.4101)" class="st2" width="60.4" height="60.4"/>
	
		<rect x="1212.6" y="13.3" transform="matrix(0.7071 0.7071 -0.7071 0.7071 394.762 -866.0399)" class="st2" width="60.4" height="60.4"/>
</g>
<g class="st1">
	
		<rect x="355.1" y="99.3" transform="matrix(0.7071 0.7071 -0.7071 0.7071 204.4366 -234.5535)" class="st2" width="60.4" height="60.4"/>
	
		<rect x="440.9" y="99.3" transform="matrix(0.7071 0.7071 -0.7071 0.7071 229.5502 -295.1833)" class="st2" width="60.4" height="60.4"/>
	
		<rect x="526.6" y="99.3" transform="matrix(0.7071 0.7071 -0.7071 0.7071 254.6639 -355.813)" class="st2" width="60.4" height="60.4"/>
	
		<rect x="612.4" y="99.3" transform="matrix(0.7071 0.7071 -0.7071 0.7071 279.7776 -416.4428)" class="st2" width="60.4" height="60.4"/>
	
		<rect x="698.1" y="99.3" transform="matrix(0.7071 0.7071 -0.7071 0.7071 304.8912 -477.0725)" class="st2" width="60.4" height="60.4"/>
	
		<rect x="783.9" y="99.3" transform="matrix(0.7071 0.7071 -0.7071 0.7071 330.0049 -537.7023)" class="st2" width="60.4" height="60.4"/>
	
		<rect x="12.2" y="99.3" transform="matrix(0.7071 0.7071 -0.7071 0.7071 103.9819 7.9655)" class="st2" width="60.4" height="60.4"/>
	
		<rect x="97.9" y="99.3" transform="matrix(0.7071 0.7071 -0.7071 0.7071 129.0956 -52.6643)" class="st2" width="60.4" height="60.4"/>
	
		<rect x="183.7" y="99.3" transform="matrix(0.7071 0.7071 -0.7071 0.7071 154.2092 -113.294)" class="st2" width="60.4" height="60.4"/>
	
		<rect x="269.4" y="99.3" transform="matrix(0.7071 0.7071 -0.7071 0.7071 179.3229 -173.9238)" class="st2" width="60.4" height="60.4"/>
	
		<rect x="869.6" y="99.3" transform="matrix(0.7071 0.7071 -0.7071 0.7071 355.1186 -598.332)" class="st2" width="60.4" height="60.4"/>
	
		<rect x="955.3" y="99.3" transform="matrix(0.7071 0.7071 -0.7071 0.7071 380.2322 -658.9618)" class="st2" width="60.4" height="60.4"/>
	
		<rect x="1041.1" y="99.3" transform="matrix(0.7071 0.7071 -0.7071 0.7071 405.3459 -719.5916)" class="st2" width="60.4" height="60.4"/>
	
		<rect x="1126.8" y="99.3" transform="matrix(0.7071 0.7071 -0.7071 0.7071 430.4595 -780.2213)" class="st2" width="60.4" height="60.4"/>
	
		<rect x="1212.6" y="99.3" transform="matrix(0.7071 0.7071 -0.7071 0.7071 455.5732 -840.851)" class="st2" width="60.4" height="60.4"/>
</g>
<g class="st1">
	
		<rect x="355.1" y="185.3" transform="matrix(0.7071 0.7071 -0.7071 0.7071 265.2477 -209.3647)" class="st2" width="60.4" height="60.4"/>
	
		<rect x="440.9" y="185.3" transform="matrix(0.7071 0.7071 -0.7071 0.7071 290.3614 -269.9945)" class="st2" width="60.4" height="60.4"/>
	
		<rect x="526.6" y="185.3" transform="matrix(0.7071 0.7071 -0.7071 0.7071 315.4751 -330.6242)" class="st2" width="60.4" height="60.4"/>
	
		<rect x="612.4" y="185.3" transform="matrix(0.7071 0.7071 -0.7071 0.7071 340.5887 -391.254)" class="st2" width="60.4" height="60.4"/>
	
		<rect x="698.1" y="185.3" transform="matrix(0.7071 0.7071 -0.7071 0.7071 365.7024 -451.8837)" class="st2" width="60.4" height="60.4"/>
	
		<rect x="783.9" y="185.3" transform="matrix(0.7071 0.7071 -0.7071 0.7071 390.8161 -512.5135)" class="st2" width="60.4" height="60.4"/>
	
		<rect x="12.2" y="185.3" transform="matrix(0.7071 0.7071 -0.7071 0.7071 164.7931 33.1543)" class="st2" width="60.4" height="60.4"/>
	
		<rect x="97.9" y="185.3" transform="matrix(0.7071 0.7071 -0.7071 0.7071 189.9068 -27.4755)" class="st2" width="60.4" height="60.4"/>
	
		<rect x="183.7" y="185.3" transform="matrix(0.7071 0.7071 -0.7071 0.7071 215.0204 -88.1052)" class="st2" width="60.4" height="60.4"/>
	
		<rect x="269.4" y="185.3" transform="matrix(0.7071 0.7071 -0.7071 0.7071 240.1341 -148.735)" class="st2" width="60.4" height="60.4"/>
	
		<rect x="869.6" y="185.3" transform="matrix(0.7071 0.7071 -0.7071 0.7071 415.9297 -573.1432)" class="st2" width="60.4" height="60.4"/>
	
		<rect x="955.3" y="185.3" transform="matrix(0.7071 0.7071 -0.7071 0.7071 441.0434 -633.7729)" class="st2" width="60.4" height="60.4"/>
	
		<rect x="1041.1" y="185.3" transform="matrix(0.7071 0.7071 -0.7071 0.7071 466.1571 -694.4027)" class="st2" width="60.4" height="60.4"/>
	
		<rect x="1126.8" y="185.3" transform="matrix(0.7071 0.7071 -0.7071 0.7071 491.2707 -755.0325)" class="st2" width="60.4" height="60.4"/>
	
		<rect x="1212.6" y="185.3" transform="matrix(0.7071 0.7071 -0.7071 0.7071 516.3844 -815.6622)" class="st2" width="60.4" height="60.4"/>
</g>
<g class="st1">
	
		<rect x="355.1" y="271.3" transform="matrix(0.7071 0.7071 -0.7071 0.7071 326.0589 -184.1759)" class="st2" width="60.4" height="60.4"/>
	
		<rect x="440.9" y="271.3" transform="matrix(0.7071 0.7071 -0.7071 0.7071 351.1726 -244.8056)" class="st2" width="60.4" height="60.4"/>
	
		<rect x="526.6" y="271.3" transform="matrix(0.7071 0.7071 -0.7071 0.7071 376.2863 -305.4354)" class="st2" width="60.4" height="60.4"/>
	
		<rect x="612.4" y="271.3" transform="matrix(0.7071 0.7071 -0.7071 0.7071 401.3999 -366.0652)" class="st2" width="60.4" height="60.4"/>
	
		<rect x="698.1" y="271.3" transform="matrix(0.7071 0.7071 -0.7071 0.7071 426.5136 -426.6949)" class="st2" width="60.4" height="60.4"/>
	
		<rect x="783.9" y="271.3" transform="matrix(0.7071 0.7071 -0.7071 0.7071 451.6273 -487.3246)" class="st2" width="60.4" height="60.4"/>
	
		<rect x="12.2" y="271.3" transform="matrix(0.7071 0.7071 -0.7071 0.7071 225.6043 58.3431)" class="st2" width="60.4" height="60.4"/>
	
		<rect x="97.9" y="271.3" transform="matrix(0.7071 0.7071 -0.7071 0.7071 250.7179 -2.2867)" class="st2" width="60.4" height="60.4"/>
	
		<rect x="183.7" y="271.3" transform="matrix(0.7071 0.7071 -0.7071 0.7071 275.8316 -62.9164)" class="st2" width="60.4" height="60.4"/>
	
		<rect x="269.4" y="271.3" transform="matrix(0.7071 0.7071 -0.7071 0.7071 300.9453 -123.5462)" class="st2" width="60.4" height="60.4"/>
	
		<rect x="869.6" y="271.3" transform="matrix(0.7071 0.7071 -0.7071 0.7071 476.7409 -547.9544)" class="st2" width="60.4" height="60.4"/>
	
		<rect x="955.3" y="271.3" transform="matrix(0.7071 0.7071 -0.7071 0.7071 501.8546 -608.5842)" class="st2" width="60.4" height="60.4"/>
	
		<rect x="1041.1" y="271.3" transform="matrix(0.7071 0.7071 -0.7071 0.7071 526.9683 -669.2139)" class="st2" width="60.4" height="60.4"/>
	
		<rect x="1126.8" y="271.3" transform="matrix(0.7071 0.7071 -0.7071 0.7071 552.0819 -729.8436)" class="st2" width="60.4" height="60.4"/>
	
		<rect x="1212.6" y="271.3" transform="matrix(0.7071 0.7071 -0.7071 0.7071 577.1956 -790.4734)" class="st2" width="60.4" height="60.4"/>
</g>
<g class="st1">
	
		<rect x="355.1" y="357.3" transform="matrix(0.7071 0.7071 -0.7071 0.7071 386.8701 -158.9871)" class="st2" width="60.4" height="60.4"/>
	
		<rect x="440.9" y="357.3" transform="matrix(0.7071 0.7071 -0.7071 0.7071 411.9838 -219.6168)" class="st2" width="60.4" height="60.4"/>
	
		<rect x="526.6" y="357.3" transform="matrix(0.7071 0.7071 -0.7071 0.7071 437.0974 -280.2466)" class="st2" width="60.4" height="60.4"/>
	
		<rect x="612.4" y="357.3" transform="matrix(0.7071 0.7071 -0.7071 0.7071 462.2111 -340.8763)" class="st2" width="60.4" height="60.4"/>
	
		<rect x="698.1" y="357.3" transform="matrix(0.7071 0.7071 -0.7071 0.7071 487.3248 -401.5061)" class="st2" width="60.4" height="60.4"/>
	
		<rect x="783.9" y="357.3" transform="matrix(0.7071 0.7071 -0.7071 0.7071 512.4384 -462.1358)" class="st2" width="60.4" height="60.4"/>
	
		<rect x="12.2" y="357.3" transform="matrix(0.7071 0.7071 -0.7071 0.7071 286.4155 83.5319)" class="st2" width="60.4" height="60.4"/>
	
		<rect x="97.9" y="357.3" transform="matrix(0.7071 0.7071 -0.7071 0.7071 311.5291 22.9022)" class="st2" width="60.4" height="60.4"/>
	
		<rect x="183.7" y="357.3" transform="matrix(0.7071 0.7071 -0.7071 0.7071 336.6428 -37.7276)" class="st2" width="60.4" height="60.4"/>
	
		<rect x="269.4" y="357.3" transform="matrix(0.7071 0.7071 -0.7071 0.7071 361.7564 -98.3573)" class="st2" width="60.4" height="60.4"/>
	
		<rect x="869.6" y="357.3" transform="matrix(0.7071 0.7071 -0.7071 0.7071 537.5521 -522.7656)" class="st2" width="60.4" height="60.4"/>
	
		<rect x="955.3" y="357.3" transform="matrix(0.7071 0.7071 -0.7071 0.7071 562.6658 -583.3953)" class="st2" width="60.4" height="60.4"/>
	
		<rect x="1041.1" y="357.3" transform="matrix(0.7071 0.7071 -0.7071 0.7071 587.7794 -644.0251)" class="st2" width="60.4" height="60.4"/>
	
		<rect x="1126.8" y="357.3" transform="matrix(0.7071 0.7071 -0.7071 0.7071 612.8931 -704.6548)" class="st2" width="60.4" height="60.4"/>
	
		<rect x="1212.6" y="357.3" transform="matrix(0.7071 0.7071 -0.7071 0.7071 638.0068 -765.2845)" class="st2" width="60.4" height="60.4"/>
</g>
<g class="st1">
	
		<rect x="355.1" y="443.3" transform="matrix(0.7071 0.7071 -0.7071 0.7071 447.6813 -133.7983)" class="st2" width="60.4" height="60.4"/>
	
		<rect x="440.9" y="443.3" transform="matrix(0.7071 0.7071 -0.7071 0.7071 472.795 -194.428)" class="st2" width="60.4" height="60.4"/>
	
		<rect x="526.6" y="443.3" transform="matrix(0.7071 0.7071 -0.7071 0.7071 497.9086 -255.0578)" class="st2" width="60.4" height="60.4"/>
	
		<rect x="612.4" y="443.3" transform="matrix(0.7071 0.7071 -0.7071 0.7071 523.0223 -315.6875)" class="st2" width="60.4" height="60.4"/>
	
		<rect x="698.1" y="443.3" transform="matrix(0.7071 0.7071 -0.7071 0.7071 548.136 -376.3173)" class="st2" width="60.4" height="60.4"/>
	
		<rect x="783.9" y="443.3" transform="matrix(0.7071 0.7071 -0.7071 0.7071 573.2496 -436.947)" class="st2" width="60.4" height="60.4"/>
	
		<rect x="12.2" y="443.3" transform="matrix(0.7071 0.7071 -0.7071 0.7071 347.2267 108.7207)" class="st2" width="60.4" height="60.4"/>
	
		<rect x="97.9" y="443.3" transform="matrix(0.7071 0.7071 -0.7071 0.7071 372.3403 48.091)" class="st2" width="60.4" height="60.4"/>
	
		<rect x="183.7" y="443.3" transform="matrix(0.7071 0.7071 -0.7071 0.7071 397.454 -12.5388)" class="st2" width="60.4" height="60.4"/>
	
		<rect x="269.4" y="443.3" transform="matrix(0.7071 0.7071 -0.7071 0.7071 422.5676 -73.1685)" class="st2" width="60.4" height="60.4"/>
	
		<rect x="869.6" y="443.3" transform="matrix(0.7071 0.7071 -0.7071 0.7071 598.3633 -497.5768)" class="st2" width="60.4" height="60.4"/>
	
		<rect x="955.3" y="443.3" transform="matrix(0.7071 0.7071 -0.7071 0.7071 623.4769 -558.2065)" class="st2" width="60.4" height="60.4"/>
	
		<rect x="1041.1" y="443.3" transform="matrix(0.7071 0.7071 -0.7071 0.7071 648.5906 -618.8362)" class="st2" width="60.4" height="60.4"/>
	
		<rect x="1126.8" y="443.3" transform="matrix(0.7071 0.7071 -0.7071 0.7071 673.7043 -679.466)" class="st2" width="60.4" height="60.4"/>
	
		<rect x="1212.6" y="443.3" transform="matrix(0.7071 0.7071 -0.7071 0.7071 698.8179 -740.0958)" class="st2" width="60.4" height="60.4"/>
</g>
<g class="st1">
	
		<rect x="355.1" y="529.3" transform="matrix(0.7071 0.7071 -0.7071 0.7071 508.4925 -108.6095)" class="st2" width="60.4" height="60.4"/>
	
		<rect x="440.9" y="529.3" transform="matrix(0.7071 0.7071 -0.7071 0.7071 533.6061 -169.2392)" class="st2" width="60.4" height="60.4"/>
	
		<rect x="526.6" y="529.3" transform="matrix(0.7071 0.7071 -0.7071 0.7071 558.7198 -229.8689)" class="st2" width="60.4" height="60.4"/>
	
		<rect x="612.4" y="529.3" transform="matrix(0.7071 0.7071 -0.7071 0.7071 583.8335 -290.4987)" class="st2" width="60.4" height="60.4"/>
	
		<rect x="698.1" y="529.3" transform="matrix(0.7071 0.7071 -0.7071 0.7071 608.9471 -351.1284)" class="st2" width="60.4" height="60.4"/>
	
		<rect x="783.9" y="529.3" transform="matrix(0.7071 0.7071 -0.7071 0.7071 634.0608 -411.7582)" class="st2" width="60.4" height="60.4"/>
	
		<rect x="12.2" y="529.3" transform="matrix(0.7071 0.7071 -0.7071 0.7071 408.0378 133.9095)" class="st2" width="60.4" height="60.4"/>
	
		<rect x="97.9" y="529.3" transform="matrix(0.7071 0.7071 -0.7071 0.7071 433.1515 73.2798)" class="st2" width="60.4" height="60.4"/>
	
		<rect x="183.7" y="529.3" transform="matrix(0.7071 0.7071 -0.7071 0.7071 458.2652 12.65)" class="st2" width="60.4" height="60.4"/>
	
		<rect x="269.4" y="529.3" transform="matrix(0.7071 0.7071 -0.7071 0.7071 483.3788 -47.9797)" class="st2" width="60.4" height="60.4"/>
	
		<rect x="869.6" y="529.3" transform="matrix(0.7071 0.7071 -0.7071 0.7071 659.1744 -472.3879)" class="st2" width="60.4" height="60.4"/>
	
		<rect x="955.3" y="529.3" transform="matrix(0.7071 0.7071 -0.7071 0.7071 684.2881 -533.0177)" class="st2" width="60.4" height="60.4"/>
	
		<rect x="1041.1" y="529.3" transform="matrix(0.7071 0.7071 -0.7071 0.7071 709.4018 -593.6475)" class="st2" width="60.4" height="60.4"/>
	
		<rect x="1126.8" y="529.3" transform="matrix(0.7071 0.7071 -0.7071 0.7071 734.5154 -654.2772)" class="st2" width="60.4" height="60.4"/>
	
		<rect x="1212.6" y="529.3" transform="matrix(0.7071 0.7071 -0.7071 0.7071 759.6292 -714.9069)" class="st2" width="60.4" height="60.4"/>
</g>
<g class="st1">
	
		<rect x="355.1" y="615.3" transform="matrix(0.7071 0.7071 -0.7071 0.7071 569.3036 -83.4206)" class="st2" width="60.4" height="60.4"/>
	
		<rect x="440.9" y="615.3" transform="matrix(0.7071 0.7071 -0.7071 0.7071 594.4174 -144.0504)" class="st2" width="60.4" height="60.4"/>
	
		<rect x="526.6" y="615.3" transform="matrix(0.7071 0.7071 -0.7071 0.7071 619.531 -204.6801)" class="st2" width="60.4" height="60.4"/>
	
		<rect x="612.4" y="615.3" transform="matrix(0.7071 0.7071 -0.7071 0.7071 644.6447 -265.3099)" class="st2" width="60.4" height="60.4"/>
	
		<rect x="698.1" y="615.3" transform="matrix(0.7071 0.7071 -0.7071 0.7071 669.7583 -325.9396)" class="st2" width="60.4" height="60.4"/>
	
		<rect x="783.9" y="615.3" transform="matrix(0.7071 0.7071 -0.7071 0.7071 694.872 -386.5694)" class="st2" width="60.4" height="60.4"/>
	
		<rect x="12.2" y="615.3" transform="matrix(0.7071 0.7071 -0.7071 0.7071 468.849 159.0984)" class="st2" width="60.4" height="60.4"/>
	
		<rect x="97.9" y="615.3" transform="matrix(0.7071 0.7071 -0.7071 0.7071 493.9627 98.4686)" class="st2" width="60.4" height="60.4"/>
	
		<rect x="183.7" y="615.3" transform="matrix(0.7071 0.7071 -0.7071 0.7071 519.0764 37.8389)" class="st2" width="60.4" height="60.4"/>
	
		<rect x="269.4" y="615.3" transform="matrix(0.7071 0.7071 -0.7071 0.7071 544.19 -22.7909)" class="st2" width="60.4" height="60.4"/>
	
		<rect x="869.6" y="615.3" transform="matrix(0.7071 0.7071 -0.7071 0.7071 719.9857 -447.1991)" class="st2" width="60.4" height="60.4"/>
	
		<rect x="955.3" y="615.3" transform="matrix(0.7071 0.7071 -0.7071 0.7071 745.0993 -507.8289)" class="st2" width="60.4" height="60.4"/>
	
		<rect x="1041.1" y="615.3" transform="matrix(0.7071 0.7071 -0.7071 0.7071 770.213 -568.4586)" class="st2" width="60.4" height="60.4"/>
	
		<rect x="1126.8" y="615.3" transform="matrix(0.7071 0.7071 -0.7071 0.7071 795.3267 -629.0884)" class="st2" width="60.4" height="60.4"/>
	
		<rect x="1212.6" y="615.3" transform="matrix(0.7071 0.7071 -0.7071 0.7071 820.4403 -689.7181)" class="st2" width="60.4" height="60.4"/>
</g>
<g class="st1">
	
		<rect x="355.1" y="701.3" transform="matrix(0.7071 0.7071 -0.7071 0.7071 630.1149 -58.2318)" class="st2" width="60.4" height="60.4"/>
	
		<rect x="440.9" y="701.3" transform="matrix(0.7071 0.7071 -0.7071 0.7071 655.2285 -118.8616)" class="st2" width="60.4" height="60.4"/>
	
		<rect x="526.6" y="701.3" transform="matrix(0.7071 0.7071 -0.7071 0.7071 680.3422 -179.4913)" class="st2" width="60.4" height="60.4"/>
	
		<rect x="612.4" y="701.3" transform="matrix(0.7071 0.7071 -0.7071 0.7071 705.4559 -240.1211)" class="st2" width="60.4" height="60.4"/>
	
		<rect x="698.1" y="701.3" transform="matrix(0.7071 0.7071 -0.7071 0.7071 730.5695 -300.7508)" class="st2" width="60.4" height="60.4"/>
	
		<rect x="783.9" y="701.3" transform="matrix(0.7071 0.7071 -0.7071 0.7071 755.6832 -361.3806)" class="st2" width="60.4" height="60.4"/>
	
		<rect x="12.2" y="701.3" transform="matrix(0.7071 0.7071 -0.7071 0.7071 529.6602 184.2872)" class="st2" width="60.4" height="60.4"/>
	
		<rect x="97.9" y="701.3" transform="matrix(0.7071 0.7071 -0.7071 0.7071 554.7739 123.6574)" class="st2" width="60.4" height="60.4"/>
	
		<rect x="183.7" y="701.3" transform="matrix(0.7071 0.7071 -0.7071 0.7071 579.8875 63.0277)" class="st2" width="60.4" height="60.4"/>
	
		<rect x="269.4" y="701.3" transform="matrix(0.7071 0.7071 -0.7071 0.7071 605.0012 2.3979)" class="st2" width="60.4" height="60.4"/>
	
		<rect x="869.6" y="701.3" transform="matrix(0.7071 0.7071 -0.7071 0.7071 780.7968 -422.0103)" class="st2" width="60.4" height="60.4"/>
	
		<rect x="955.3" y="701.3" transform="matrix(0.7071 0.7071 -0.7071 0.7071 805.9105 -482.64)" class="st2" width="60.4" height="60.4"/>
	
		<rect x="1041.1" y="701.3" transform="matrix(0.7071 0.7071 -0.7071 0.7071 831.0242 -543.2698)" class="st2" width="60.4" height="60.4"/>
	
		<rect x="1126.8" y="701.3" transform="matrix(0.7071 0.7071 -0.7071 0.7071 856.1378 -603.8995)" class="st2" width="60.4" height="60.4"/>
	
		<rect x="1212.6" y="701.3" transform="matrix(0.7071 0.7071 -0.7071 0.7071 881.2515 -664.5293)" class="st2" width="60.4" height="60.4"/>
</g>
<g class="st1">
	
		<rect x="355.1" y="787.3" transform="matrix(0.7071 0.7071 -0.7071 0.7071 690.926 -33.043)" class="st2" width="60.4" height="60.4"/>
	
		<rect x="440.9" y="787.3" transform="matrix(0.7071 0.7071 -0.7071 0.7071 716.0397 -93.6727)" class="st2" width="60.4" height="60.4"/>
	
		<rect x="526.6" y="787.3" transform="matrix(0.7071 0.7071 -0.7071 0.7071 741.1534 -154.3025)" class="st2" width="60.4" height="60.4"/>
	
		<rect x="612.4" y="787.3" transform="matrix(0.7071 0.7071 -0.7071 0.7071 766.267 -214.9323)" class="st2" width="60.4" height="60.4"/>
	
		<rect x="698.1" y="787.3" transform="matrix(0.7071 0.7071 -0.7071 0.7071 791.3807 -275.562)" class="st2" width="60.4" height="60.4"/>
	
		<rect x="783.9" y="787.3" transform="matrix(0.7071 0.7071 -0.7071 0.7071 816.4943 -336.1917)" class="st2" width="60.4" height="60.4"/>
	
		<rect x="12.2" y="787.3" transform="matrix(0.7071 0.7071 -0.7071 0.7071 590.4714 209.476)" class="st2" width="60.4" height="60.4"/>
	
		<rect x="97.9" y="787.3" transform="matrix(0.7071 0.7071 -0.7071 0.7071 615.585 148.8463)" class="st2" width="60.4" height="60.4"/>
	
		<rect x="183.7" y="787.3" transform="matrix(0.7071 0.7071 -0.7071 0.7071 640.6987 88.2165)" class="st2" width="60.4" height="60.4"/>
	
		<rect x="269.4" y="787.3" transform="matrix(0.7071 0.7071 -0.7071 0.7071 665.8124 27.5868)" class="st2" width="60.4" height="60.4"/>
	
		<rect x="869.6" y="787.3" transform="matrix(0.7071 0.7071 -0.7071 0.7071 841.608 -396.8215)" class="st2" width="60.4" height="60.4"/>
	
		<rect x="955.3" y="787.3" transform="matrix(0.7071 0.7071 -0.7071 0.7071 866.7217 -457.4512)" class="st2" width="60.4" height="60.4"/>
	
		<rect x="1041.1" y="787.3" transform="matrix(0.7071 0.7071 -0.7071 0.7071 891.8353 -518.081)" class="st2" width="60.4" height="60.4"/>
	
		<rect x="1126.8" y="787.3" transform="matrix(0.7071 0.7071 -0.7071 0.7071 916.949 -578.7108)" class="st2" width="60.4" height="60.4"/>
	
		<rect x="1212.6" y="787.3" transform="matrix(0.7071 0.7071 -0.7071 0.7071 942.0627 -639.3405)" class="st2" width="60.4" height="60.4"/>
</g>
<g class="st1">
	
		<rect x="355.1" y="873.3" transform="matrix(0.7071 0.7071 -0.7071 0.7071 751.7372 -7.8542)" class="st2" width="60.4" height="60.4"/>
	
		<rect x="440.9" y="873.3" transform="matrix(0.7071 0.7071 -0.7071 0.7071 776.8509 -68.4839)" class="st2" width="60.4" height="60.4"/>
	
		<rect x="526.6" y="873.3" transform="matrix(0.7071 0.7071 -0.7071 0.7071 801.9645 -129.1137)" class="st2" width="60.4" height="60.4"/>
	
		<rect x="612.4" y="873.3" transform="matrix(0.7071 0.7071 -0.7071 0.7071 827.0782 -189.7434)" class="st2" width="60.4" height="60.4"/>
	
		<rect x="698.1" y="873.3" transform="matrix(0.7071 0.7071 -0.7071 0.7071 852.1919 -250.3732)" class="st2" width="60.4" height="60.4"/>
	
		<rect x="783.9" y="873.3" transform="matrix(0.7071 0.7071 -0.7071 0.7071 877.3055 -311.0029)" class="st2" width="60.4" height="60.4"/>
	
		<rect x="12.2" y="873.3" transform="matrix(0.7071 0.7071 -0.7071 0.7071 651.2825 234.6648)" class="st2" width="60.4" height="60.4"/>
	
		<rect x="97.9" y="873.3" transform="matrix(0.7071 0.7071 -0.7071 0.7071 676.3962 174.0351)" class="st2" width="60.4" height="60.4"/>
	
		<rect x="183.7" y="873.3" transform="matrix(0.7071 0.7071 -0.7071 0.7071 701.5099 113.4053)" class="st2" width="60.4" height="60.4"/>
	
		<rect x="269.4" y="873.3" transform="matrix(0.7071 0.7071 -0.7071 0.7071 726.6235 52.7756)" class="st2" width="60.4" height="60.4"/>
	
		<rect x="869.6" y="873.3" transform="matrix(0.7071 0.7071 -0.7071 0.7071 902.4192 -371.6327)" class="st2" width="60.4" height="60.4"/>
	
		<rect x="955.3" y="873.3" transform="matrix(0.7071 0.7071 -0.7071 0.7071 927.5328 -432.2624)" class="st2" width="60.4" height="60.4"/>
	
		<rect x="1041.1" y="873.3" transform="matrix(0.7071 0.7071 -0.7071 0.7071 952.6465 -492.8922)" class="st2" width="60.4" height="60.4"/>
	
		<rect x="1126.8" y="873.3" transform="matrix(0.7071 0.7071 -0.7071 0.7071 977.7602 -553.5219)" class="st2" width="60.4" height="60.4"/>
	
		<rect x="1212.6" y="873.3" transform="matrix(0.7071 0.7071 -0.7071 0.7071 1002.8738 -614.1517)" class="st2" width="60.4" height="60.4"/>
</g>
<g class="st1">
	
		<rect x="355.1" y="959.3" transform="matrix(0.7071 0.7071 -0.7071 0.7071 812.5484 17.3346)" class="st2" width="60.4" height="60.4"/>
	
		<rect x="440.9" y="959.3" transform="matrix(0.7071 0.7071 -0.7071 0.7071 837.662 -43.2951)" class="st2" width="60.4" height="60.4"/>
	
		<rect x="526.6" y="959.3" transform="matrix(0.7071 0.7071 -0.7071 0.7071 862.7758 -103.9249)" class="st2" width="60.4" height="60.4"/>
	
		<rect x="612.4" y="959.3" transform="matrix(0.7071 0.7071 -0.7071 0.7071 887.8894 -164.5546)" class="st2" width="60.4" height="60.4"/>
	
		<rect x="698.1" y="959.3" transform="matrix(0.7071 0.7071 -0.7071 0.7071 913.0031 -225.1844)" class="st2" width="60.4" height="60.4"/>
	
		<rect x="783.9" y="959.3" transform="matrix(0.7071 0.7071 -0.7071 0.7071 938.1167 -285.8141)" class="st2" width="60.4" height="60.4"/>
	
		<rect x="12.2" y="959.3" transform="matrix(0.7071 0.7071 -0.7071 0.7071 712.0938 259.8536)" class="st2" width="60.4" height="60.4"/>
	
		<rect x="97.9" y="959.3" transform="matrix(0.7071 0.7071 -0.7071 0.7071 737.2074 199.2239)" class="st2" width="60.4" height="60.4"/>
	
		<rect x="183.7" y="959.3" transform="matrix(0.7071 0.7071 -0.7071 0.7071 762.321 138.5941)" class="st2" width="60.4" height="60.4"/>
	
		<rect x="269.4" y="959.3" transform="matrix(0.7071 0.7071 -0.7071 0.7071 787.4348 77.9644)" class="st2" width="60.4" height="60.4"/>
	
		<rect x="869.6" y="959.3" transform="matrix(0.7071 0.7071 -0.7071 0.7071 963.2304 -346.4438)" class="st2" width="60.4" height="60.4"/>
	
		<rect x="955.3" y="959.3" transform="matrix(0.7071 0.7071 -0.7071 0.7071 988.3441 -407.0736)" class="st2" width="60.4" height="60.4"/>
	
		<rect x="1041.1" y="959.3" transform="matrix(0.7071 0.7071 -0.7071 0.7071 1013.4577 -467.7034)" class="st2" width="60.4" height="60.4"/>
	
		<rect x="1126.8" y="959.3" transform="matrix(0.7071 0.7071 -0.7071 0.7071 1038.5714 -528.3331)" class="st2" width="60.4" height="60.4"/>
	
		<rect x="1212.6" y="959.3" transform="matrix(0.7071 0.7071 -0.7071 0.7071 1063.6851 -588.9628)" class="st2" width="60.4" height="60.4"/>
</g>
<rect x="141.5" y="13.5" transform="matrix(0.7071 0.7071 -0.7071 0.7071 549.4904 -302.587)" class="st3" width="997" height="997"/>
<rect x="212.5" y="83.5" transform="matrix(0.7071 0.7071 -0.7071 0.7071 549.7832 -303.2941)" class="st4" width="857" height="857"/>
</svg>
